<svg width="40" height="40" viewBox="0 0 40 40" fill="none" xmlns="http://www.w3.org/2000/svg">
<g clip-path="url(#clip0_502_14)">
<path d="M34.1422 5.85781C30.3647 2.08031 25.3422 0 20 0C14.6578 0 9.63531 2.08031 5.85781 5.85781C2.08031 9.63531 0 14.6578 0 20C0 25.3422 2.08039 30.3646 5.85781 34.1422C9.63523 37.9198 14.6578 40 20 40C25.3422 40 30.3647 37.9197 34.1422 34.1422C37.9197 30.3647 40 25.3422 40 20C40 14.6578 37.9196 9.63539 34.1422 5.85781Z" fill="#33CC95"/>
<path d="M19.9999 8V31.1429" stroke="white" stroke-width="2" stroke-linecap="round" stroke-linejoin="round"/>
<path d="M27.4999 12.2078H16.25C14.8576 12.2078 13.5222 12.5957 12.5377 13.2862C11.5531 13.9766 11 14.9132 11 15.8896C11 16.8661 11.5531 17.8026 12.5377 18.4931C13.5222 19.1835 14.8576 19.5714 16.25 19.5714H23.75C25.1423 19.5714 26.4778 19.9594 27.4623 20.6498C28.4469 21.3403 29 22.2768 29 23.2532C29 24.2297 28.4469 25.1662 27.4623 25.8567C26.4778 26.5472 25.1423 26.935 23.75 26.935H11" stroke="white" stroke-width="2" stroke-linecap="round" stroke-linejoin="round"/>
</g>
<defs>
<clipPath id="clip0_502_14">
<rect width="40" height="40" fill="white"/>
</clipPath>
</defs>
</svg>
